<svg width="512" height="86" viewBox="0 0 512 86" fill="none" xmlns="http://www.w3.org/2000/svg">
<path d="M0.700195 11.1499C5.3802 16.5299 10.2802 21.6599 15.7002 26.3099C19.2802 29.3899 23.2502 30.7999 28.0302 30.7699C47.2702 30.6599 66.5002 30.7399 85.7402 30.7499C91.4802 30.7499 96.6702 32.4599 101.21 35.9699C110.05 42.8099 118.92 49.6099 127.65 56.5799C129.8 58.2999 131.31 58.5599 133.59 56.7299C141.64 50.2799 149.99 44.1999 157.97 37.6599C164.06 32.6699 170.82 30.5899 178.64 30.6699C197.2 30.8599 215.77 30.6999 234.34 30.8199C238.72 30.8499 242.32 29.4499 245.58 26.6299C249.48 23.2499 253.22 19.6999 256.77 15.9599C258.03 14.6299 259.43 13.3499 260.31 11.5199C259.11 11.4099 258.56 12.0899 258.17 12.6299C255.27 16.6999 251 16.7899 246.62 16.7799C228.15 16.7199 209.68 16.6399 191.21 16.6899C184.54 16.7099 178.38 18.5599 173.02 22.6899C159.55 33.0699 146.04 43.3899 132.6 53.7999C131.23 54.8599 130.36 54.9699 128.92 53.8499C115.62 43.5699 102.24 33.3899 88.9002 23.1599C83.4702 18.9999 77.4302 16.9399 70.5202 17.0099C57.7002 17.1499 44.8702 17.0799 32.0502 17.0299C25.0702 16.9999 18.0902 17.2299 11.1002 16.6999C8.4902 16.4999 6.2902 16.0099 4.5102 13.9099C3.5102 12.7299 2.4002 11.5199 0.720195 11.1299L0.700195 11.1499ZM16.7202 28.3999C20.8302 33.1099 25.1202 37.6099 29.8702 41.6899C33.0102 44.3899 36.4902 45.6299 40.6702 45.5999C57.5302 45.4999 74.4002 45.5699 91.2502 45.5799C96.2802 45.5799 100.84 47.0799 104.82 50.1499C112.57 56.1399 120.34 62.1099 128 68.2199C129.88 69.7199 131.21 69.9499 133.2 68.3499C140.25 62.6999 147.58 57.3699 154.57 51.6399C159.91 47.2699 165.83 45.4399 172.69 45.5099C188.96 45.6799 205.24 45.5399 221.51 45.6399C225.35 45.6599 228.51 44.4399 231.36 41.9599C234.78 38.9899 238.06 35.8899 241.17 32.6099C242.27 31.4399 243.5 30.3199 244.27 28.7199C243.22 28.6299 242.74 29.2199 242.4 29.6999C239.86 33.2699 236.11 33.3499 232.27 33.3399C216.08 33.2899 199.89 33.2199 183.7 33.2599C177.85 33.2699 172.46 34.8899 167.75 38.5199C155.94 47.6199 144.1 56.6699 132.31 65.7899C131.1 66.7199 130.35 66.8099 129.08 65.8399C117.42 56.8299 105.69 47.9099 94.0002 38.9399C89.2402 35.2899 83.9502 33.4899 77.8902 33.5499C66.6502 33.6699 55.4102 33.6099 44.1602 33.5699C38.0402 33.5499 31.9202 33.7499 25.8002 33.2799C23.5102 33.0999 21.5802 32.6699 20.0302 30.8299C19.1602 29.8099 18.1902 28.7499 16.7202 28.3999ZM34.7502 45.1699C38.2002 49.1399 41.8102 52.9199 45.8102 56.3499C48.4602 58.6199 51.3802 59.6599 54.9002 59.6399C69.0902 59.5599 83.2802 59.6099 97.4702 59.6299C101.7 59.6299 105.53 60.8899 108.88 63.4799C115.4 68.5199 121.94 73.5399 128.39 78.6799C129.97 79.9399 131.09 80.1399 132.77 78.7899C138.71 74.0299 144.87 69.5499 150.75 64.7299C155.24 61.0499 160.23 59.5199 165.99 59.5699C179.68 59.7099 193.38 59.5899 207.07 59.6799C210.3 59.6999 212.96 58.6699 215.36 56.5899C218.24 54.0999 220.99 51.4799 223.61 48.7199C224.54 47.7399 225.57 46.7999 226.22 45.4399C225.34 45.3599 224.93 45.8599 224.64 46.2599C222.5 49.2599 219.35 49.3299 216.12 49.3199C202.5 49.2699 188.87 49.2199 175.25 49.2499C170.33 49.2599 165.79 50.6299 161.83 53.6799C151.89 61.3399 141.93 68.9499 132.01 76.6299C131 77.4099 130.36 77.4899 129.29 76.6699C119.48 69.0899 109.61 61.5799 99.7702 54.0299C95.7702 50.9599 91.3102 49.4399 86.2102 49.4999C76.7502 49.5999 67.2902 49.5499 57.8302 49.5199C52.6802 49.4999 47.5302 49.6699 42.3802 49.2699C40.4602 49.1199 38.8302 48.7599 37.5202 47.2099C36.7902 46.3499 35.9802 45.4499 34.7302 45.1599H34.7402L34.7502 45.1699Z" fill="url(#paint0_linear_150_262)"/>
<path d="M290.57 75.0301C287.08 75.0301 284.17 74.3501 281.83 72.9901C279.49 71.6301 277.72 69.6401 276.53 67.0101C275.34 64.3801 274.67 61.1601 274.52 57.3401L283.62 55.5501C283.72 57.7901 283.99 59.7801 284.44 61.4901C284.89 63.2101 285.59 64.5301 286.52 65.4601C287.45 66.3901 288.68 66.8601 290.21 66.8601C291.93 66.8601 293.15 66.3501 293.86 65.3201C294.58 64.2901 294.93 62.9901 294.93 61.4201C294.93 58.8901 294.36 56.8101 293.21 55.1901C292.06 53.5701 290.54 51.9401 288.63 50.3201L281.33 43.8701C279.28 42.1001 277.64 40.1301 276.42 37.9601C275.2 35.7901 274.59 33.1001 274.59 29.9001C274.59 25.3201 275.93 21.7801 278.6 19.3001C281.27 16.8201 284.93 15.5801 289.56 15.5801C292.28 15.5801 294.55 16.0001 296.36 16.8301C298.17 17.6701 299.62 18.8201 300.69 20.3001C301.76 21.7801 302.56 23.4601 303.09 25.3501C303.61 27.2401 303.95 29.2301 304.09 31.3301L295.07 32.9101C294.97 31.1001 294.77 29.4701 294.46 28.0401C294.15 26.6101 293.6 25.4901 292.81 24.6701C292.02 23.8601 290.86 23.4501 289.34 23.4501C287.82 23.4501 286.56 23.9601 285.72 24.9901C284.88 26.0201 284.47 27.2901 284.47 28.8201C284.47 30.7801 284.88 32.3901 285.69 33.6501C286.5 34.9201 287.67 36.2201 289.2 37.5501L296.43 43.9201C298.82 45.9301 300.86 48.2801 302.55 50.9701C304.24 53.6701 305.09 56.9301 305.09 60.7501C305.09 63.5201 304.48 65.9801 303.26 68.1301C302.04 70.2801 300.35 71.9601 298.17 73.1801C296 74.4001 293.45 75.0101 290.54 75.0101L290.57 75.0301Z" fill="url(#paint1_linear_150_262)"/>
<path d="M311.34 74.2405V16.2305H321.94V41.7305L333.4 16.2305H343.5L332.4 42.1605L344.65 74.2405H334.12L324.38 47.8105L321.95 52.2505V74.2405H311.35H311.34Z" fill="url(#paint2_linear_150_262)"/>
<path d="M357.53 74.2405V52.1105L345.78 16.2305H355.66L362.82 39.2205L369.55 16.2305H379.22L367.62 52.1105V74.2405H357.52H357.53Z" fill="url(#paint3_linear_150_262)"/>
<path d="M410.6 74.2405L398.93 16.2305H408.31L415.97 57.2705L423.13 16.2305H432.73L421.06 74.2405H410.6Z" fill="url(#paint4_linear_150_262)"/>
<path d="M438.96 74.2405V16.2305H449.42V74.2405H438.96Z" fill="url(#paint5_linear_150_262)"/>
<path d="M458.37 74.2405V16.2305H475.41C478.89 16.2305 481.72 16.8705 483.9 18.1605C486.07 19.4505 487.67 21.3205 488.7 23.7805C489.73 26.2405 490.24 29.2105 490.24 32.7005C490.24 36.4705 489.6 39.5205 488.31 41.8305C487.02 44.1505 485.22 45.8305 482.9 46.8805C480.58 47.9305 477.85 48.4605 474.7 48.4605H468.97V74.2405H458.37ZM468.97 41.0105H472.98C474.89 41.0105 476.38 40.7405 477.46 40.1905C478.53 39.6405 479.27 38.7605 479.68 37.5405C480.09 36.3205 480.29 34.6905 480.29 32.6305C480.29 30.5705 480.13 28.8205 479.82 27.5105C479.51 26.2005 478.84 25.2305 477.81 24.6105C476.78 23.9905 475.17 23.6805 472.98 23.6805H468.97V41.0105Z" fill="url(#paint6_linear_150_262)"/>
<defs>
<linearGradient id="paint0_linear_150_262" x1="0.700195" y1="45.4399" x2="260.28" y2="45.4399" gradientUnits="userSpaceOnUse">
<stop stop-color="#91713E"/>
<stop offset="1" stop-color="#D1AF77"/>
</linearGradient>
<linearGradient id="paint1_linear_150_262" x1="537.8" y1="44.3001" x2="317.32" y2="45.1901" gradientUnits="userSpaceOnUse">
<stop stop-color="#91713E"/>
<stop offset="1" stop-color="#D1AF77"/>
</linearGradient>
<linearGradient id="paint2_linear_150_262" x1="537.8" y1="44.3805" x2="317.32" y2="45.2805" gradientUnits="userSpaceOnUse">
<stop stop-color="#91713E"/>
<stop offset="1" stop-color="#D1AF77"/>
</linearGradient>
<linearGradient id="paint3_linear_150_262" x1="537.8" y1="44.5005" x2="317.32" y2="45.3905" gradientUnits="userSpaceOnUse">
<stop stop-color="#91713E"/>
<stop offset="1" stop-color="#D1AF77"/>
</linearGradient>
<linearGradient id="paint4_linear_150_262" x1="537.8" y1="44.7105" x2="317.32" y2="45.6105" gradientUnits="userSpaceOnUse">
<stop stop-color="#91713E"/>
<stop offset="1" stop-color="#D1AF77"/>
</linearGradient>
<linearGradient id="paint5_linear_150_262" x1="537.8" y1="44.8505" x2="317.32" y2="45.7505" gradientUnits="userSpaceOnUse">
<stop stop-color="#91713E"/>
<stop offset="1" stop-color="#D1AF77"/>
</linearGradient>
<linearGradient id="paint6_linear_150_262" x1="537.8" y1="44.9305" x2="317.32" y2="45.8305" gradientUnits="userSpaceOnUse">
<stop stop-color="#91713E"/>
<stop offset="1" stop-color="#D1AF77"/>
</linearGradient>
</defs>
</svg>
