<svg width="512" height="512" viewBox="0 0 512 512" fill="none" xmlns="http://www.w3.org/2000/svg">
<g clip-path="url(#clip0_330_4)">
<path d="M219.543 240.039L271.922 300.337L272 502.287L265.627 511.456L240.914 512V315.799C240.914 315.1 232.638 306.747 230.656 306.397L79.6571 449.954L58.3634 432.315L198.366 292.683L202.329 280.872L196.19 271.081H0V240H219.543V240.039Z" fill="#F28705"/>
<path d="M311.034 240.914H512V272H297.507L245.333 219.543V0L269.875 0.582857L275.788 6.13943C274.59 12.512 272.309 18.4571 272.193 25.1017C271.227 70.2537 266.59 146.88 272.193 188.651C273.933 201.474 281.314 211.383 293.797 202.29L430.841 63.8811C439.42 59.4514 448.155 74.4114 453.72 80.2011L314.667 223.234L310.995 240.914H311.034Z" fill="#F28705"/>
</g>
<defs>
<clipPath id="clip0_330_4">
<rect width="512" height="512" fill="white"/>
</clipPath>
</defs>
</svg>
