<svg width="128" height="55" viewBox="0 0 128 55" fill="none" xmlns="http://www.w3.org/2000/svg">
<path fill-rule="evenodd" clip-rule="evenodd" d="M89.5993 35.8093C89.5993 34.463 88.6577 33.727 87.3005 33.2832L85.9844 32.8526C84.9878 32.5337 84.6138 32.2141 84.6138 31.7422C84.6138 31.1869 85.1952 30.8673 86.0129 30.8673C86.7879 30.8673 87.5358 31.1449 88.2837 31.6588L89.2396 30.243C88.2564 29.5207 87.2306 29.1602 85.9987 29.1602C84.0462 29.1602 82.6063 30.1598 82.6063 31.8255C82.6063 33.2417 83.6586 34.0467 85.0434 34.491L86.4006 34.9354C87.3005 35.2265 87.6046 35.5324 87.6046 35.9762C87.6046 36.5867 86.9819 36.9344 86.123 36.9344C85.2374 36.9344 84.3371 36.6148 83.5062 35.8793L82.3847 37.295C83.4087 38.1557 84.6694 38.6281 86.0959 38.6281C88.2276 38.6281 89.5993 37.4897 89.5993 35.8093ZM77.0903 38.5036H79.0981V29.2853H77.0903V38.5036ZM71.925 38.5036L69.6815 35.4912H67.9233V38.5036H65.9708V29.2853H70.0974C72.2852 29.2853 73.726 30.4239 73.726 32.3112C73.726 33.6442 72.8671 34.6442 71.6762 35.158L74.2799 38.5036H71.925ZM69.9588 30.9515H67.9233V33.8107H69.973C71.039 33.8107 71.7176 33.2694 71.7176 32.3807C71.7176 31.4785 71.0532 30.9515 69.9588 30.9515ZM61.126 38.5032H63.2454L59.2258 29.2288H56.9066L52.9553 38.5032H55.005L55.1297 38.1972C55.6554 36.9064 56.6942 36.2125 58.0654 36.2125C59.4371 36.2125 60.4754 36.9064 61.0022 38.1972L61.126 38.5032ZM58.0654 34.7684C57.5394 34.7684 56.8745 34.8794 56.3208 35.268L58.0654 30.8816L59.8105 35.268C59.2571 34.8794 58.5922 34.7684 58.0654 34.7684ZM47.9458 29.2833C50.1202 29.2833 51.6853 30.4912 51.6853 32.4485C51.6853 34.4481 50.1202 35.6693 47.9458 35.6693H46.2013V38.5016H44.2488V29.2833H47.9458ZM47.8357 33.99C48.9567 33.99 49.6632 33.4341 49.6632 32.5042C49.6632 31.5183 48.9709 30.9495 47.8357 30.9495H46.2013V33.99H47.8357Z" fill="#031F73"/>
<path fill-rule="evenodd" clip-rule="evenodd" d="M17.9595 2.5V46.525C18.2628 46.5171 18.5741 46.5171 18.8695 46.525V2.5H17.9595ZM13.7046 18.2383L12.8351 18.7748L15.5095 46.7508C15.7973 46.7023 16.1481 46.6544 16.4119 46.6301L13.7046 18.2383ZM9.97583 30.9647L10.7819 30.3809L14.0717 47.0384C13.7841 47.1101 13.4571 47.1981 13.1933 47.2782L9.97583 30.9647ZM8.40208 35.9492L7.64355 36.5894L11.0295 48.0923C11.2412 47.9933 11.5583 47.8627 11.7889 47.7678L11.8758 47.732L8.40208 35.9492ZM5.6874 40.4504L6.36599 39.7303L9.8478 48.6953C9.5999 48.8312 9.31259 48.999 9.06497 49.1593L5.6874 40.4504ZM4.42541 42.6994L3.7703 43.3713L7.27531 50.4712C7.507 50.2714 7.78705 50.0554 7.98576 49.9035L4.42541 42.6994ZM1.88599 45.9084L2.51706 45.2598L6.35746 51.3356C6.17384 51.5197 5.91839 51.7918 5.73477 52.0081L1.88599 45.9084ZM20.4187 46.6301C20.6823 46.6544 21.033 46.7023 21.3212 46.7508L23.9958 18.7745L23.1258 18.2383L20.4187 46.6301ZM23.6364 47.2779C23.3732 47.1981 23.0456 47.1101 22.7583 47.0384L26.0481 30.3809L26.8541 30.9647L23.6364 47.2779ZM24.9547 47.732L25.0483 47.7706L25.0486 47.7707L25.0488 47.7708C25.2789 47.8657 25.5914 47.9946 25.8007 48.0923L29.1869 36.5894L28.4284 35.9492L24.9547 47.732ZM27.765 49.1593C27.5174 48.999 27.2303 48.8312 26.9824 48.6953L30.4637 39.7303L31.1426 40.4504L27.765 49.1593ZM28.8428 49.9035C29.0421 50.0554 29.3216 50.2714 29.5536 50.4712L33.0583 43.3715L32.4037 42.6994L28.8428 49.9035ZM31.0948 52.008C30.9106 51.792 30.6551 51.5197 30.4718 51.3356L34.3125 45.2598L34.9436 45.9086L31.0948 52.008Z" fill="#031F73"/>
<path fill-rule="evenodd" clip-rule="evenodd" d="M62.2733 47.953H57.4877V50.7693H62.8999V52.006H56.1132V42.7885H62.8379V44.0244H57.4877V46.7183H62.2733V47.953ZM60.1015 40.0781L58.5347 41.6496H60.1084L61.6772 40.0781H60.1015ZM75.7509 47.4116C75.7509 44.7326 77.8148 42.6641 80.501 42.6641C83.1183 42.6641 85.196 44.6768 85.196 47.3979C85.196 50.0629 83.1463 52.132 80.4736 52.132C77.842 52.132 75.7509 50.1324 75.7509 47.4116ZM77.122 47.3979C77.122 49.4112 78.5899 50.8827 80.501 50.8827C82.3704 50.8827 83.8243 49.425 83.8243 47.4116C83.8243 45.3848 82.3565 43.8853 80.4736 43.8853C78.5756 43.8853 77.122 45.3848 77.122 47.3979ZM97.1173 47.4116C97.1173 44.7326 99.1813 42.6641 101.867 42.6641C104.485 42.6641 106.562 44.6768 106.562 47.3979C106.562 50.0629 104.513 52.132 101.84 52.132C99.2084 52.132 97.1173 50.1324 97.1173 47.4116ZM98.4885 47.3979C98.4885 49.4112 99.9563 50.8827 101.867 50.8827C103.737 50.8827 105.191 49.425 105.191 47.4116C105.191 45.3848 103.723 43.8853 101.84 43.8853C99.9421 43.8853 98.4885 45.3848 98.4885 47.3979ZM115.758 52.0074L113.086 48.5506H110.676V52.0074H109.388V42.7891H113.321C115.398 42.7891 116.797 43.8719 116.797 45.6071C116.797 47.0505 115.91 47.9535 114.484 48.3004L117.35 52.0074H115.758ZM113.279 44.0246H110.676V47.3287H113.266C114.636 47.3287 115.426 46.6342 115.426 45.6351C115.426 44.6217 114.636 44.0246 113.279 44.0246ZM88.0421 42.7891V52.0074H89.3163V48.8697H91.3937C93.4429 48.8697 95.0488 47.87 95.0488 45.7878C95.0488 43.9137 93.6089 42.7891 91.4904 42.7891H88.0421ZM89.3163 47.6756V44.0246H91.4216C92.8339 44.0246 93.6919 44.6769 93.6919 45.8295C93.6919 46.9539 92.8339 47.6756 91.3794 47.6756H89.3163ZM69.8278 48.5506L72.5005 52.0074H74.0933L71.2263 48.3004C72.6525 47.9535 73.5391 47.0505 73.5391 45.6071C73.5391 43.8719 72.1405 42.7891 70.0637 42.7891H66.1305V52.0074H67.4184V48.5506H69.8278ZM67.4184 44.0246H70.022C71.3786 44.0246 72.1685 44.6217 72.1685 45.6351C72.1685 46.6342 71.3786 47.3287 70.0081 47.3287H67.4184V44.0246ZM45.357 51.2861C45.9803 49.8704 47.0748 49.1904 48.4456 49.1904C49.8162 49.1904 50.9244 49.8704 51.5479 51.2861L51.8657 52.0084H53.4028L49.2223 42.7344H47.6578L43.4739 52.0084H45.0382L45.357 51.2861ZM50.3151 48.4822C49.7749 48.1347 49.0963 47.9546 48.4456 47.9546C47.7944 47.9546 47.1158 48.121 46.5759 48.4822L48.4456 44.0551L50.3151 48.4822ZM118.807 44.2797V43.0078H126.114V44.2797H123.102V52.4974H121.805V44.2797H118.807Z" fill="#F32518"/>
</svg>
